<?xml version="1.0" standalone="no"?>
<!DOCTYPE svg PUBLIC "-//W3C//DTD SVG 20010904//EN"
 "http://www.w3.org/TR/2001/REC-SVG-20010904/DTD/svg10.dtd">
<svg version="1.0" xmlns="http://www.w3.org/2000/svg"
 width="500.000000pt" height="500.000000pt" viewBox="0 0 500.000000 500.000000"
 preserveAspectRatio="xMidYMid meet">
<metadata>
Created by potrace 1.16, written by Peter Selinger 2001-2019
</metadata>
<g transform="translate(0.000000,500.000000) scale(0.100000,-0.100000)"
fill="#000000" stroke="none">
<path d="M2880 2915 c0 -96 -3 -175 -7 -175 -5 0 -21 9 -38 21 -51 35 -138 76
-195 93 -77 23 -226 22 -312 -3 -80 -23 -170 -70 -161 -84 3 -6 1 -7 -5 -3 -7
4 -12 16 -12 27 0 18 -6 16 -70 -16 -38 -19 -79 -35 -90 -35 -11 0 -48 14 -82
30 -34 17 -65 30 -70 30 -4 0 -8 -74 -8 -165 l0 -165 45 0 45 0 0 58 c0 73 18
102 65 102 47 0 65 -29 65 -102 0 -54 2 -58 24 -58 20 0 25 7 34 55 45 223
338 341 576 232 103 -47 185 -148 201 -244 l7 -43 49 0 49 0 0 80 0 80 35 0
35 0 0 -80 0 -80 55 0 55 0 0 310 0 310 -145 0 -145 0 0 -175z"/>
<path d="M1838 2977 c-70 -34 -128 -65 -128 -70 0 -4 11 -12 25 -17 23 -9 25
-14 25 -75 0 -37 -4 -74 -9 -84 -12 -22 1 -44 25 -39 17 3 19 11 15 86 -1 45
-1 82 2 82 3 0 49 -20 101 -44 l96 -45 140 67 c77 37 140 69 140 72 0 9 -273
130 -290 129 -8 0 -72 -29 -142 -62z"/>
<path d="M1770 2204 c0 -76 3 -94 15 -94 11 0 15 16 17 68 l3 67 29 -46 30
-47 30 46 31 47 3 -68 c2 -51 6 -67 17 -67 12 0 15 18 15 90 0 83 -2 90 -20
90 -12 0 -29 -15 -45 -40 -14 -22 -29 -40 -33 -40 -4 0 -17 18 -29 39 -12 21
-31 41 -43 44 -19 5 -20 1 -20 -89z"/>
<path d="M2176 2208 c-20 -51 -36 -96 -36 -100 0 -19 31 -5 40 17 8 21 16 25
48 25 32 0 41 -5 50 -25 11 -25 48 -36 40 -12 -85 230 -89 232 -142 95z"/>
<path d="M1700 2262 c0 -26 -3 -28 -33 -24 -45 5 -67 -18 -67 -68 0 -49 34
-77 77 -64 16 4 34 6 41 5 9 -1 12 22 12 89 0 73 -3 90 -15 90 -10 0 -15 -10
-15 -28z"/>
<path d="M3600 2138 c0 -91 1 -98 20 -98 16 0 20 7 20 33 0 32 1 33 34 29 63
-7 99 61 61 116 -14 19 -24 21 -75 20 l-60 -2 0 -98z"/>
</g>
</svg>
